<?xml version="1.0" encoding="UTF-8" standalone="no"?>
<svg
   fill="none"
   viewBox="0 0 36 36"
   version="1.1"
   id="svg15"
   sodipodi:docname="favicon.svg"
   xml:space="preserve"
   inkscape:version="1.2.2 (b0a8486541, 2022-12-01)"
   xmlns:inkscape="http://www.inkscape.org/namespaces/inkscape"
   xmlns:sodipodi="http://sodipodi.sourceforge.net/DTD/sodipodi-0.dtd"
   xmlns="http://www.w3.org/2000/svg"
   xmlns:svg="http://www.w3.org/2000/svg"><sodipodi:namedview
     id="namedview17"
     pagecolor="#505050"
     bordercolor="#eeeeee"
     borderopacity="1"
     inkscape:showpageshadow="0"
     inkscape:pageopacity="0"
     inkscape:pagecheckerboard="0"
     inkscape:deskcolor="#505050"
     showgrid="false"
     inkscape:zoom="12.362334"
     inkscape:cx="25.480624"
     inkscape:cy="25.237952"
     inkscape:window-width="1920"
     inkscape:window-height="1011"
     inkscape:window-x="0"
     inkscape:window-y="32"
     inkscape:window-maximized="1"
     inkscape:current-layer="svg15" /><defs
     id="defs11"><linearGradient
       id="gradient"
       x1="16"
       x2="16"
       y1="32"
       y2="24"
       gradientUnits="userSpaceOnUse"><stop
         stop-color="#000"
         id="stop6" /><stop
         offset="1"
         stop-color="#000"
         stop-opacity="0"
         id="stop8" /></linearGradient></defs><style
     id="style13">
    @media (prefers-color-scheme:dark){:root{filter:invert(100%)}}
  </style><path
     style="fill:#ffffff;stroke-width:10.1768"
     id="path765"
     sodipodi:type="arc"
     sodipodi:cx="18"
     sodipodi:cy="18"
     sodipodi:rx="18"
     sodipodi:ry="18"
     sodipodi:start="0"
     sodipodi:end="6.2797909"
     sodipodi:open="true"
     sodipodi:arc-type="arc"
     d="M 36,18 A 18,18 0 0 1 18.015275,35.999994 18,18 0 0 1 2.5924494e-5,18.03055 18,18 0 0 1 17.954176,5.8330094e-5 18,18 0 0 1 35.999896,17.938901" /><path
     fill="#099bc3"
     d="m 24.759717,19.040748 c -3.788791,0 -6.829178,3.040387 -6.829178,6.829178 0,3.78879 3.040387,6.829178 6.829178,6.829178 3.788789,0 6.829176,-3.040388 6.829176,-6.829178 0,-3.788791 -3.040387,-6.829178 -6.829176,-6.829178 m 0,8.934062 c -1.309706,0 -2.291985,-0.98228 -2.291985,-2.291985 0,-1.309705 0.982279,-2.291984 2.291985,-2.291984 1.309704,0 2.291983,0.982279 2.291983,2.291984 -0.04677,1.35648 -1.029053,2.291985 -2.291983,2.291985"
     id="path132"
     style="display:inline;stroke-width:0.116938"
     transform="matrix(0.72753499,0,0,0.72753499,3.201872,4.8724923)" /><path
     fill="#099bc3"
     d="m 24.759717,3.3008974 c -3.788791,0 -6.829178,3.0403872 -6.829178,6.8291776 0,3.78879 3.040387,6.829178 6.829178,6.829178 3.788789,0 6.829176,-3.040388 6.829176,-6.829178 -0.04677,-3.7887904 -3.040387,-6.8291776 -6.829176,-6.8291776 m 0,8.9808356 c -1.309706,0 -2.291985,-0.982278 -2.291985,-2.2919837 0,-1.3097053 0.982279,-2.2919842 2.291985,-2.2919842 1.309704,0 2.291983,0.9822789 2.291983,2.2919842 0,1.3097057 -1.029053,2.2919837 -2.291983,2.2919837"
     id="path136"
     style="display:inline;stroke-width:0.116938"
     transform="matrix(0.72753499,0,0,0.72753499,3.201872,4.8724923)" /><path
     fill="#099bc3"
     d="m 11.240284,11.065578 c -3.7887905,0 -6.8291779,3.040387 -6.8291779,6.829178 0,3.78879 3.0403874,6.829178 6.8291779,6.829178 3.78879,0 6.829177,-3.040388 6.829177,-6.829178 0,-3.788791 -3.040387,-6.829178 -6.829177,-6.829178 m 0,8.980836 c -1.3097056,0 -2.2919845,-0.982279 -2.2919845,-2.291983 0,-1.309706 0.9822789,-2.291985 2.2919845,-2.291985 1.309705,0 2.291984,0.982279 2.291984,2.291985 -0.04677,1.35648 -1.029054,2.291983 -2.291984,2.291983"
     id="path140"
     style="display:inline;stroke-width:0.116938"
     transform="matrix(0.72753499,0,0,0.72753499,3.201872,4.8724923)" /></svg>
